{
 "espireDate": "N",
 "format": "text",
 "jSonReasons": [
  "lg_en"
 ],
 "key": "gSQa6jSA",
 "pasteDate": "Feb 11, 2018, 6:14:01 AM",
 "relevancy": 3.0,
 "relevant": false,
 "text": "General\nUnique ID                   : 213138372413640878286870822478266896818 (0xA058F5166496CC2087433A3271FE11B2)\nComplete name               : E:\\RGFya2VzdEhvdXJXRUI.mkv\nFormat                      : Matroska\nFormat version              : Version 4 / Version 2\nFile size                   : 1.38 GiB\nDuration                    : 2 h 4 min\nOverall bit rate            : 1 586 kb/s\nMovie name                  : The Darkest Hour WEB-DL / The Darkest Hour WEB-DL\nEncoded date                : UTC 2018-02-07 08:45:05\nWriting application         : mkvmerge v12.0.0 ('Trust / Lust') 32bit\nWriting library             : libebml v1.3.4 + libmatroska v1.4.5\nCopyright                   : Movies HDs 2017\nARTIST                      : HarshLearner\n\nVideo\nID                          : 1\nFormat                      : AVC\nFormat/Info                 : Advanced Video Codec\nFormat profile              : High@L4.1\nFormat settings             : CABAC / 8 Ref Frames\nFormat settings, CABAC      : Yes\nFormat settings, ReFrames   : 8 frames\nCodec ID                    : V_MPEG4/ISO/AVC\nDuration                    : 2 h 4 min\nBit rate                    : 1 200 kb/s\nWidth                       : 1 280 pixels\nHeight                      : 688 pixels\nDisplay aspect ratio        : 1.85:1\nFrame rate mode             : Constant\nFrame rate                  : 23.976 (24000/1001) FPS\nColor space                 : YUV\nChroma subsampling          : 4:2:0\nBit depth                   : 8 bits\nScan type                   : Progressive\nBits/(Pixel*Frame)          : 0.057\nStream size                 : 1.05 GiB (76%)\nTitle                       : The Darkest Hour\nWriting library             : x264 core 152 r2851 ba24899\nEncoding settings           : cabac=1 / ref=8 / deblock=1:-1:-1 / analyse=0x3:0x133 / me=umh / subme=9 / psy=1 / psy_rd=1.00:0.15 / mixed_ref=1 / me_range=24 / chroma_me=1 / trellis=2 / 8x8dct=1 / cqm=0 / deadzone=21,11 / fast_pskip=0 / chroma_qp_offset=-3 / threads=12 / lookahead_threads=1 / sliced_threads=0 / nr=0 / decimate=1 / interlaced=0 / bluray_compat=0 / constrained_intra=0 / bframes=3 / b_pyramid=2 / b_adapt=2 / b_bias=0 / direct=3 / weightb=1 / open_gop=0 / weightp=2 / keyint=250 / keyint_min=23 / scenecut=40 / intra_refresh=0 / rc_lookahead=60 / rc=2pass / mbtree=1 / bitrate=1200 / ratetol=1.0 / qcomp=0.60 / qpmin=0 / qpmax=69 / qpstep=4 / cplxblur=20.0 / qblur=0.5 / ip_ratio=1.40 / aq=1:1.00\nLanguage                    : English\nDefault                     : Yes\nForced                      : No\nColor range                 : Limited\nColor primaries             : BT.709\nTransfer characteristics    : BT.709\nMatrix coefficients         : BT.709\n\nAudio #1\nID                          : 2\nFormat                      : AAC\nFormat/Info                 : Advanced Audio Codec\nFormat profile              : LC\nCodec ID                    : A_AAC-2\nDuration                    : 2 h 4 min\nBit rate                    : 128 kb/s\nChannel(s)                  : 2 channels\nChannel positions           : Front: L R\nSampling rate               : 48.0 kHz\nFrame rate                  : 46.875 FPS (1024 SPF)\nCompression mode            : Lossy\nDelay relative to video     : 9 ms\nStream size                 : 114 MiB (8%)\nLanguage                    : English\nDefault                     : No\nForced                      : No\n\nAudio #2\nID                          : 3\nFormat                      : AC-3\nFormat/Info                 : Audio Coding 3\nCodec ID                    : A_AC3\nDuration                    : 2 h 4 min\nBit rate mode               : Constant\nBit rate                    : 256 kb/s\nChannel(s)                  : 2 channels\nChannel positions           : Front: L R\nSampling rate               : 48.0 kHz\nFrame rate                  : 31.250 FPS (1536 SPF)\nBit depth                   : 16 bits\nCompression mode            : Lossy\nStream size                 : 229 MiB (16%)\nLanguage                    : Spanish\nService kind                : Complete Main\nDefault                     : Yes\nForced                      : No\n\nText #1\nID                          : 4\nFormat                      : UTF-8\nCodec ID                    : S_TEXT/UTF8\nCodec ID/Info               : UTF-8 Plain Text\nDuration                    : 1 h 57 min\nBit rate                    : 56 b/s\nCount of elements           : 1759\nStream size                 : 48.3 KiB (0%)\nLanguage                    : English\nDefault                     : No\nForced                      : No\n\nText #2\nID                          : 5\nFormat                      : UTF-8\nCodec ID                    : S_TEXT/UTF8\nCodec ID/Info               : UTF-8 Plain Text\nDuration                    : 1 h 58 min\nBit rate                    : 66 b/s\nCount of elements           : 1814\nStream size                 : 57.7 KiB (0%)\nLanguage                    : Spanish\nDefault                     : Yes\nForced                      : Yes\n\nText #3\nID                          : 6\nFormat                      : UTF-8\nCodec ID                    : S_TEXT/UTF8\nCodec ID/Info               : UTF-8 Plain Text\nDuration                    : 1 h 58 min\nBit rate                    : 1 b/s\nCount of elements           : 42\nStream size                 : 1.16 KiB (0%)\nLanguage                    : Spanish\nDefault                     : No\nForced                      : No\n\nMenu\n00:00:00.000                : en:1\n00:05:21.029                : en:2\n00:10:18.951                : en:3\n00:14:00.589                : en:4\n00:22:34.060                : en:5\n00:29:24.178                : en:6\n00:37:10.519                : en:7\n00:41:05.587                : en:8\n00:48:27.904                : en:9\n00:56:17.498                : en:10\n01:02:39.463                : en:11\n01:10:58.003                : en:12\n01:18:42.467                : en:13\n01:24:06.791                : en:14\n01:30:26.629                : en:15\n01:35:59.753                : en:16\n01:39:34.968                : en:17\n01:45:21.105                : en:18\n01:52:56.226                : en:19\n01:59:46.010                : en:20",
 "title": "Darkest Hour WEB-DL"
}